<?xml version="1.0" encoding="UTF-8" standalone="no"?>
<svg
   viewBox="0 0 64 64"
   role="img"
   aria-label="Dossiers icon"
   version="1.1"
   id="svg4"
   sodipodi:docname="favicon.svg"
   inkscape:version="1.4.3 (0d15f75, 2025-12-25)"
   xmlns:inkscape="http://www.inkscape.org/namespaces/inkscape"
   xmlns:sodipodi="http://sodipodi.sourceforge.net/DTD/sodipodi-0.dtd"
   xmlns="http://www.w3.org/2000/svg"
   xmlns:svg="http://www.w3.org/2000/svg">
  <defs
     id="defs4" />
  <sodipodi:namedview
     id="namedview4"
     pagecolor="#ffffff"
     bordercolor="#666666"
     borderopacity="1.0"
     inkscape:showpageshadow="2"
     inkscape:pageopacity="0.0"
     inkscape:pagecheckerboard="0"
     inkscape:deskcolor="#d1d1d1"
     inkscape:zoom="3.25"
     inkscape:cx="34.923077"
     inkscape:cy="24.153846"
     inkscape:window-width="1283"
     inkscape:window-height="758"
     inkscape:window-x="0"
     inkscape:window-y="38"
     inkscape:window-maximized="0"
     inkscape:current-layer="svg4" />
  <rect
     width="64"
     height="64"
     rx="10"
     fill="#78aaff"
     id="rect52"
     x="0"
     y="0"
     ry="10" />
  <rect
     style="fill:#cccccc;fill-opacity:1;stroke:#333333;stroke-width:2;stroke-linecap:round;stroke-linejoin:round;stroke-dasharray:none;stroke-opacity:1"
     id="rect60"
     width="34"
     height="48"
     x="-28.71282"
     y="-67.71283"
     rx="4"
     ry="4"
     transform="rotate(150)" />
  <rect
     style="fill:#ececec;fill-opacity:1;stroke:#333333;stroke-width:2;stroke-linecap:round;stroke-linejoin:round;stroke-dasharray:none;stroke-opacity:1"
     id="rect61"
     width="34"
     height="48"
     x="-39.627419"
     y="-63.191822"
     rx="4"
     ry="4"
     transform="rotate(165)" />
  <path
     fill="#e2e8f0"
     stroke="#1e293b"
     stroke-width="2"
     d="m 17.999994,8.0000162 h 18 l 12,11.9999998 v 32 a 4,4 0 0 1 -4,4 h -26 a 4,4 0 0 1 -4,-4 v -40 a 4,4 0 0 1 4,-3.9999998 z"
     id="path61"
     style="fill:#f9f9f9" />
  <path
     fill="#cbd5e1"
     stroke="#1e293b"
     stroke-width="2"
     stroke-linejoin="round"
     d="M 35.999994,8.0000162 V 20.000016 a 0,0 0 0 0 2,0 h 10 z"
     id="path62"
     style="fill:#cccccc" />
  <rect
     x="21"
     y="27.527954"
     width="20"
     height="2.5"
     rx="1.25"
     fill="#1e293b"
     id="rect62"
     style="fill:#3567b2;fill-opacity:1;stroke:none;stroke-opacity:1" />
  <rect
     x="21"
     y="33.5495"
     width="16"
     height="2.5"
     rx="1.25"
     fill="#1e293b"
     id="rect63"
     style="fill:#3567b2;fill-opacity:1;stroke:none;stroke-opacity:1" />
  <rect
     x="21"
     y="45.592621"
     width="16"
     height="2.5"
     rx="1.25"
     fill="#1e293b"
     id="rect64"
     style="fill:#3567b2;fill-opacity:1;stroke:none;stroke-opacity:1" />
  <rect
     x="21"
     y="39.571045"
     width="10"
     height="2.5"
     rx="1.25"
     fill="#1e293b"
     id="rect65"
     style="fill:#3567b2;fill-opacity:1;stroke:none;stroke-opacity:1" />
  <rect
     x="21"
     y="18.564819"
     width="10"
     height="2.5"
     rx="1.25"
     fill="#1e293b"
     id="rect66"
     style="fill:#d40000;fill-opacity:1;stroke:none;stroke-opacity:1" />
</svg>
